<?xml version="1.0" encoding="UTF-8" standalone="no"?>
<!DOCTYPE svg PUBLIC "-//W3C//DTD SVG 1.1//EN"
 "http://www.w3.org/Graphics/SVG/1.1/DTD/svg11.dtd">
<!-- Generated by graphviz version 2.47.3 (20210619.1520)
 -->
<!-- Pages: 1 -->
<svg width="1226pt" height="964pt"
 viewBox="0.00 0.00 1226.18 964.00" xmlns="http://www.w3.org/2000/svg" xmlns:xlink="http://www.w3.org/1999/xlink">
<g id="graph0" class="graph" transform="scale(1 1) rotate(0) translate(4 960)">
<polygon fill="white" stroke="transparent" points="-4,4 -4,-960 1222.18,-960 1222.18,4 -4,4"/>
<!-- Resource0 -->
<g id="node1" class="node">
<title>Resource0</title>
<polygon fill="none" stroke="black" points="475.23,-420.78 475.23,-456.78 755.23,-456.78 755.23,-420.78 475.23,-420.78"/>
<text text-anchor="middle" x="615.23" y="-435.08" font-family="Times,serif" font-size="14.00">pulumi:pulumi:Stack::aisr&#45;data&#45;warehouse&#45;dev</text>
</g>
<!-- Resource1 -->
<g id="node2" class="node">
<title>Resource1</title>
<polygon fill="none" stroke="black" points="978.18,-312.23 978.18,-348.23 1218.18,-348.23 1218.18,-312.23 978.18,-312.23"/>
<text text-anchor="middle" x="1098.18" y="-326.53" font-family="Times,serif" font-size="14.00">gcp:bigquery/dataset:Dataset::uccc_aisr</text>
</g>
<!-- Resource1&#45;&gt;Resource0 -->
<g id="edge2" class="edge">
<title>Resource1&#45;&gt;Resource0</title>
<path fill="none" stroke="#aa6639" d="M1017.89,-348.28C931.8,-367.63 795.41,-398.28 705.61,-418.47"/>
<polygon fill="#aa6639" stroke="#aa6639" points="704.7,-415.08 695.71,-420.69 706.24,-421.91 704.7,-415.08"/>
</g>
<!-- Resource2 -->
<g id="node3" class="node">
<title>Resource2</title>
<polygon fill="none" stroke="black" points="711.68,-0.5 711.68,-36.5 910.68,-36.5 910.68,-0.5 711.68,-0.5"/>
<text text-anchor="middle" x="811.18" y="-14.8" font-family="Times,serif" font-size="14.00">gcp:bigquery/table:Table::dicom</text>
</g>
<!-- Resource1&#45;&gt;Resource2 -->
<g id="edge1" class="edge">
<title>Resource1&#45;&gt;Resource2</title>
<path fill="none" stroke="#246c60" d="M1081.51,-312.12C1032.97,-259.4 891.57,-105.81 834.99,-44.36"/>
<polygon fill="#246c60" stroke="#246c60" points="837.25,-41.64 827.9,-36.66 832.1,-46.38 837.25,-41.64"/>
<text text-anchor="middle" x="932.75" y="-182.04" font-family="Times,serif" font-size="14.00">datasetId</text>
</g>
<!-- Resource2&#45;&gt;Resource0 -->
<g id="edge8" class="edge">
<title>Resource2&#45;&gt;Resource0</title>
<path fill="none" stroke="#aa6639" d="M802.76,-36.56C771.99,-102.55 665.49,-330.97 628.23,-410.9"/>
<polygon fill="#aa6639" stroke="#aa6639" points="624.89,-409.77 623.84,-420.32 631.23,-412.73 624.89,-409.77"/>
</g>
<!-- Resource3 -->
<g id="node4" class="node">
<title>Resource3</title>
<polygon fill="none" stroke="black" points="377.35,-919.5 377.35,-955.5 659.35,-955.5 659.35,-919.5 377.35,-919.5"/>
<text text-anchor="middle" x="518.35" y="-933.8" font-family="Times,serif" font-size="14.00">gcp:projects/service:Service::enable_cloud_run</text>
</g>
<!-- Resource3&#45;&gt;Resource0 -->
<g id="edge4" class="edge">
<title>Resource3&#45;&gt;Resource0</title>
<path fill="none" stroke="#aa6639" d="M521.86,-919.45C536.41,-844.53 592.13,-557.68 609.81,-466.67"/>
<polygon fill="#aa6639" stroke="#aa6639" points="613.26,-467.28 611.73,-456.8 606.38,-465.95 613.26,-467.28"/>
</g>
<!-- Resource4 -->
<g id="node5" class="node">
<title>Resource4</title>
<polygon fill="none" stroke="black" points="243.99,-703.83 243.99,-739.83 496.99,-739.83 496.99,-703.83 243.99,-703.83"/>
<text text-anchor="middle" x="370.49" y="-718.13" font-family="Times,serif" font-size="14.00">gcp:cloudrun/service:Service::ohif&#45;viewer</text>
</g>
<!-- Resource3&#45;&gt;Resource4 -->
<g id="edge3" class="edge">
<title>Resource3&#45;&gt;Resource4</title>
<path fill="none" stroke="#246c60" d="M506,-919.48C479.91,-881.42 419.08,-792.69 388.59,-748.22"/>
<polygon fill="#246c60" stroke="#246c60" points="391.46,-746.22 382.92,-739.95 385.68,-750.17 391.46,-746.22"/>
</g>
<!-- Resource4&#45;&gt;Resource0 -->
<g id="edge20" class="edge">
<title>Resource4&#45;&gt;Resource0</title>
<path fill="none" stroke="#aa6639" d="M386.18,-703.69C428.21,-655.08 543.52,-521.72 592.61,-464.94"/>
<polygon fill="#aa6639" stroke="#aa6639" points="595.47,-466.99 599.36,-457.13 590.17,-462.41 595.47,-466.99"/>
</g>
<!-- Resource12 -->
<g id="node13" class="node">
<title>Resource12</title>
<polygon fill="none" stroke="black" points="0,-577.31 0,-613.31 282,-613.31 282,-577.31 0,-577.31"/>
<text text-anchor="middle" x="141" y="-591.61" font-family="Times,serif" font-size="14.00">gcp:cloudrun/iamBinding:IamBinding::binding</text>
</g>
<!-- Resource4&#45;&gt;Resource12 -->
<g id="edge19" class="edge">
<title>Resource4&#45;&gt;Resource12</title>
<path fill="none" stroke="#246c60" d="M337.61,-703.7C296.8,-681.2 227.15,-642.8 182.64,-618.27"/>
<polygon fill="#246c60" stroke="#246c60" points="184.27,-615.17 173.82,-613.4 180.89,-621.3 184.27,-615.17"/>
<text text-anchor="middle" x="191.13" y="-664.79" font-family="Times,serif" font-size="14.00">project, service, location</text>
</g>
<!-- Resource5 -->
<g id="node6" class="node">
<title>Resource5</title>
<polygon fill="none" stroke="black" points="836.45,-702.56 836.45,-738.56 1213.45,-738.56 1213.45,-702.56 836.45,-702.56"/>
<text text-anchor="middle" x="1024.95" y="-716.86" font-family="Times,serif" font-size="14.00">gcp:pubsub/subscription:Subscription::new_dicom_subscription</text>
</g>
<!-- Resource5&#45;&gt;Resource0 -->
<g id="edge5" class="edge">
<title>Resource5&#45;&gt;Resource0</title>
<path fill="none" stroke="#aa6639" d="M998.69,-702.51C927.38,-653.46 730.05,-517.75 649.82,-462.57"/>
<polygon fill="#aa6639" stroke="#aa6639" points="651.75,-459.65 641.53,-456.87 647.78,-465.42 651.75,-459.65"/>
</g>
<!-- Resource6 -->
<g id="node7" class="node">
<title>Resource6</title>
<polygon fill="none" stroke="black" points="952,-816.5 952,-852.5 1184,-852.5 1184,-816.5 952,-816.5"/>
<text text-anchor="middle" x="1068" y="-830.8" font-family="Times,serif" font-size="14.00">pulumi:providers:gcp::default_5_11_0</text>
</g>
<!-- Resource7 -->
<g id="node8" class="node">
<title>Resource7</title>
<polygon fill="none" stroke="black" points="161.51,-39.29 161.51,-75.29 406.51,-75.29 406.51,-39.29 161.51,-39.29"/>
<text text-anchor="middle" x="284.01" y="-53.59" font-family="Times,serif" font-size="14.00">gcp:healthcare/dataset:Dataset::uccc&#45;aisr</text>
</g>
<!-- Resource7&#45;&gt;Resource0 -->
<g id="edge7" class="edge">
<title>Resource7&#45;&gt;Resource0</title>
<path fill="none" stroke="#aa6639" d="M299.76,-75.44C353.49,-137.32 529.67,-340.24 592.62,-412.74"/>
<polygon fill="#aa6639" stroke="#aa6639" points="590.18,-415.27 599.38,-420.53 595.47,-410.68 590.18,-415.27"/>
</g>
<!-- Resource8 -->
<g id="node9" class="node">
<title>Resource8</title>
<polygon fill="none" stroke="black" points="414.51,-48.54 414.51,-84.54 710.51,-84.54 710.51,-48.54 414.51,-48.54"/>
<text text-anchor="middle" x="562.51" y="-62.84" font-family="Times,serif" font-size="14.00">gcp:healthcare/dicomStore:DicomStore::uccc&#45;aisr</text>
</g>
<!-- Resource7&#45;&gt;Resource8 -->
<g id="edge6" class="edge">
<title>Resource7&#45;&gt;Resource8</title>
<path fill="none" stroke="#246c60" d="M406.57,-61.36C406.73,-61.37 406.89,-61.37 407.06,-61.38"/>
<polygon fill="#246c60" stroke="#246c60" points="404.36,-64.79 414.47,-61.63 404.59,-57.8 404.36,-64.79"/>
<text text-anchor="middle" x="426.31" y="-50.17" font-family="Times,serif" font-size="14.00">dataset</text>
</g>
<!-- Resource8&#45;&gt;Resource0 -->
<g id="edge9" class="edge">
<title>Resource8&#45;&gt;Resource0</title>
<path fill="none" stroke="#aa6639" d="M565.09,-84.75C573.6,-144.86 600.86,-337.35 611.2,-410.35"/>
<polygon fill="#aa6639" stroke="#aa6639" points="607.79,-411.2 612.65,-420.61 614.72,-410.22 607.79,-411.2"/>
</g>
<!-- Resource9 -->
<g id="node10" class="node">
<title>Resource9</title>
<polygon fill="none" stroke="black" points="91.99,-358.2 91.99,-394.2 296.99,-394.2 296.99,-358.2 91.99,-358.2"/>
<text text-anchor="middle" x="194.49" y="-372.5" font-family="Times,serif" font-size="14.00">docker:image:Image::ohif&#45;viewer</text>
</g>
<!-- Resource9&#45;&gt;Resource0 -->
<g id="edge10" class="edge">
<title>Resource9&#45;&gt;Resource0</title>
<path fill="none" stroke="#aa6639" d="M297.14,-391.47C353.48,-399.85 423.94,-410.33 484.21,-419.29"/>
<polygon fill="#aa6639" stroke="#aa6639" points="483.78,-422.77 494.18,-420.78 484.81,-415.84 483.78,-422.77"/>
</g>
<!-- Resource9&#45;&gt;Resource4 -->
<g id="edge11" class="edge">
<title>Resource9&#45;&gt;Resource4</title>
<path fill="none" stroke="#246c60" d="M203.7,-394.29C232.62,-451.09 321.73,-626.07 356.44,-694.24"/>
<polygon fill="#246c60" stroke="#246c60" points="353.5,-696.17 361.16,-703.5 359.74,-693 353.5,-696.17"/>
</g>
<!-- Resource10 -->
<g id="node11" class="node">
<title>Resource10</title>
<polygon fill="none" stroke="black" points="895.95,-68.32 895.95,-104.32 1119.95,-104.32 1119.95,-68.32 895.95,-68.32"/>
<text text-anchor="middle" x="1007.95" y="-82.62" font-family="Times,serif" font-size="14.00">gcp:storage/bucket:Bucket::uccc&#45;aisr</text>
</g>
<!-- Resource10&#45;&gt;Resource0 -->
<g id="edge12" class="edge">
<title>Resource10&#45;&gt;Resource0</title>
<path fill="none" stroke="#aa6639" d="M987.66,-104.53C922.5,-163.02 718.4,-346.19 643.31,-413.58"/>
<polygon fill="#aa6639" stroke="#aa6639" points="640.73,-411.19 635.63,-420.47 645.41,-416.4 640.73,-411.19"/>
</g>
<!-- Resource11 -->
<g id="node12" class="node">
<title>Resource11</title>
<polygon fill="none" stroke="black" points="779.63,-397.11 779.63,-433.11 1001.63,-433.11 1001.63,-397.11 779.63,-397.11"/>
<text text-anchor="middle" x="890.63" y="-411.41" font-family="Times,serif" font-size="14.00">gcp:pubsub/topic:Topic::new_dicom</text>
</g>
<!-- Resource11&#45;&gt;Resource0 -->
<g id="edge14" class="edge">
<title>Resource11&#45;&gt;Resource0</title>
<path fill="none" stroke="#aa6639" d="M779.41,-424.67C774.83,-425.06 770.22,-425.46 765.58,-425.86"/>
<polygon fill="#aa6639" stroke="#aa6639" points="765.08,-422.39 755.42,-426.73 765.68,-429.36 765.08,-422.39"/>
</g>
<!-- Resource11&#45;&gt;Resource5 -->
<g id="edge15" class="edge">
<title>Resource11&#45;&gt;Resource5</title>
<path fill="none" stroke="#246c60" d="M898.63,-433.3C921.26,-484.77 985.83,-631.62 1012.84,-693.03"/>
<polygon fill="#246c60" stroke="#246c60" points="1009.76,-694.72 1016.99,-702.47 1016.17,-691.9 1009.76,-694.72"/>
<text text-anchor="middle" x="941.74" y="-566.97" font-family="Times,serif" font-size="14.00">topic</text>
</g>
<!-- Resource11&#45;&gt;Resource8 -->
<g id="edge13" class="edge">
<title>Resource11&#45;&gt;Resource8</title>
<path fill="none" stroke="#246c60" d="M873.45,-396.86C818.97,-338.98 649.9,-159.38 586.69,-92.23"/>
<polygon fill="#246c60" stroke="#246c60" points="588.92,-89.49 579.52,-84.61 583.82,-94.29 588.92,-89.49"/>
<text text-anchor="middle" x="679.07" y="-248.34" font-family="Times,serif" font-size="14.00">notificationConfig</text>
</g>
<!-- Resource12&#45;&gt;Resource0 -->
<g id="edge16" class="edge">
<title>Resource12&#45;&gt;Resource0</title>
<path fill="none" stroke="#aa6639" d="M195.86,-577.2C284.05,-548.09 456.93,-491.03 550.83,-460.04"/>
<polygon fill="#aa6639" stroke="#aa6639" points="552.09,-463.31 560.49,-456.85 549.9,-456.66 552.09,-463.31"/>
</g>
<!-- Resource13 -->
<g id="node14" class="node">
<title>Resource13</title>
<polygon fill="none" stroke="black" points="589.85,-849.64 589.85,-885.64 871.85,-885.64 871.85,-849.64 589.85,-849.64"/>
<text text-anchor="middle" x="730.85" y="-863.94" font-family="Times,serif" font-size="14.00">gcp:container/registry:Registry::image_registry</text>
</g>
<!-- Resource13&#45;&gt;Resource0 -->
<g id="edge18" class="edge">
<title>Resource13&#45;&gt;Resource0</title>
<path fill="none" stroke="#aa6639" d="M725.96,-849.48C707.9,-782.5 644.92,-548.9 622.9,-467.23"/>
<polygon fill="#aa6639" stroke="#aa6639" points="626.17,-465.92 620.19,-457.18 619.41,-467.74 626.17,-465.92"/>
</g>
<!-- Resource13&#45;&gt;Resource4 -->
<g id="edge17" class="edge">
<title>Resource13&#45;&gt;Resource4</title>
<path fill="none" stroke="#246c60" d="M686.3,-849.61C620.07,-822.81 495.81,-772.54 424.5,-743.68"/>
<polygon fill="#246c60" stroke="#246c60" points="425.81,-740.44 415.22,-739.93 423.18,-746.92 425.81,-740.44"/>
<text text-anchor="middle" x="530.9" y="-800.45" font-family="Times,serif" font-size="14.00">template</text>
</g>
<!-- Resource14 -->
<g id="node15" class="node">
<title>Resource14</title>
<polygon fill="none" stroke="black" points="204,-272.5 204,-308.5 388,-308.5 388,-272.5 204,-272.5"/>
<text text-anchor="middle" x="296" y="-286.8" font-family="Times,serif" font-size="14.00">pulumi:providers:gcp::default</text>
</g>
</g>
</svg>
