<?xml version="1.0" encoding="UTF-8" standalone="no"?>
<!DOCTYPE svg PUBLIC "-//W3C//DTD SVG 1.1//EN"
 "http://www.w3.org/Graphics/SVG/1.1/DTD/svg11.dtd">
<!-- Generated by graphviz version 2.47.3 (20210619.1520)
 -->
<!-- Title: g Pages: 1 -->
<svg width="372pt" height="407pt"
 viewBox="0.00 0.00 372.00 407.00" xmlns="http://www.w3.org/2000/svg" xmlns:xlink="http://www.w3.org/1999/xlink">
<g id="graph0" class="graph" transform="scale(1 1) rotate(0) translate(4 403)">
<title>g</title>
<polygon fill="white" stroke="transparent" points="-4,4 -4,-403 368,-403 368,4 -4,4"/>
<!-- a1 -->
<g id="node1" class="node">
<title>a1</title>
<polygon fill="none" stroke="black" points="136,-360.5 136,-398.5 237,-398.5 237,-360.5 136,-360.5"/>
<text text-anchor="middle" x="186.5" y="-383.3" font-family="Times,serif" font-size="14.00">X&#45;ray/CT/MRI</text>
<text text-anchor="middle" x="186.5" y="-368.3" font-family="Times,serif" font-size="14.00">Images</text>
</g>
<!-- b1 -->
<g id="node2" class="node">
<title>b1</title>
<polygon fill="none" stroke="black" points="155,-284.5 155,-322.5 218,-322.5 218,-284.5 155,-284.5"/>
<text text-anchor="middle" x="186.5" y="-307.3" font-family="Times,serif" font-size="14.00">original</text>
<text text-anchor="middle" x="186.5" y="-292.3" font-family="Times,serif" font-size="14.00">DICOM</text>
</g>
<!-- a1&#45;&gt;b1 -->
<g id="edge1" class="edge">
<title>a1&#45;&gt;b1</title>
<path fill="none" stroke="black" d="M186.5,-360.21C186.5,-351.96 186.5,-342.04 186.5,-332.86"/>
<polygon fill="black" stroke="black" points="190,-332.58 186.5,-322.58 183,-332.58 190,-332.58"/>
</g>
<!-- b2 -->
<g id="node3" class="node">
<title>b2</title>
<polygon fill="none" stroke="black" points="143.5,-208.5 143.5,-246.5 229.5,-246.5 229.5,-208.5 143.5,-208.5"/>
<text text-anchor="middle" x="186.5" y="-231.3" font-family="Times,serif" font-size="14.00">Deidentified</text>
<text text-anchor="middle" x="186.5" y="-216.3" font-family="Times,serif" font-size="14.00">DICOM</text>
</g>
<!-- b1&#45;&gt;b2 -->
<g id="edge2" class="edge">
<title>b1&#45;&gt;b2</title>
<path fill="none" stroke="black" d="M186.5,-284.21C186.5,-275.96 186.5,-266.04 186.5,-256.86"/>
<polygon fill="black" stroke="black" points="190,-256.58 186.5,-246.58 183,-256.58 190,-256.58"/>
</g>
<!-- d1 -->
<g id="node4" class="node">
<title>d1</title>
<polygon fill="none" stroke="black" points="0,-88.5 0,-126.5 115,-126.5 115,-88.5 0,-88.5"/>
<text text-anchor="middle" x="57.5" y="-111.3" font-family="Times,serif" font-size="14.00">Bigquery &amp; other</text>
<text text-anchor="middle" x="57.5" y="-96.3" font-family="Times,serif" font-size="14.00">Databases</text>
</g>
<!-- b2&#45;&gt;d1 -->
<g id="edge5" class="edge">
<title>b2&#45;&gt;d1</title>
<path fill="none" stroke="black" d="M143.5,-221.5C121.56,-216.81 96.07,-207.69 79.5,-190 66.14,-175.74 60.73,-154.23 58.61,-136.88"/>
<polygon fill="black" stroke="black" points="62.08,-136.36 57.68,-126.73 55.11,-137.01 62.08,-136.36"/>
</g>
<!-- v1 -->
<g id="node6" class="node">
<title>v1</title>
<polygon fill="none" stroke="black" points="133,-89.5 133,-125.5 240,-125.5 240,-89.5 133,-89.5"/>
<text text-anchor="middle" x="186.5" y="-103.8" font-family="Times,serif" font-size="14.00">DICOM Viewer</text>
</g>
<!-- b2&#45;&gt;v1 -->
<g id="edge3" class="edge">
<title>b2&#45;&gt;v1</title>
<path fill="none" stroke="black" d="M143.2,-220.73C124.35,-215.82 103.97,-206.76 92.5,-190 81.2,-173.5 81.2,-161.5 92.5,-145 94.92,-141.47 109.23,-135.3 125.98,-129.03"/>
<polygon fill="black" stroke="black" points="127.3,-132.27 135.48,-125.55 124.89,-125.7 127.3,-132.27"/>
<text text-anchor="middle" x="128.5" y="-171.3" font-family="Times,serif" font-size="14.00">DICOMWeb</text>
<text text-anchor="middle" x="128.5" y="-156.3" font-family="Times,serif" font-size="14.00">API</text>
</g>
<!-- d3 -->
<g id="node7" class="node">
<title>d3</title>
<polygon fill="none" stroke="black" points="261,-89.5 261,-125.5 364,-125.5 364,-89.5 261,-89.5"/>
<text text-anchor="middle" x="312.5" y="-103.8" font-family="Times,serif" font-size="14.00">Image Analysis</text>
</g>
<!-- b2&#45;&gt;d3 -->
<g id="edge7" class="edge">
<title>b2&#45;&gt;d3</title>
<path fill="none" stroke="black" d="M229.65,-218.41C247.48,-213.12 267.01,-204.4 280.5,-190 294.15,-175.43 299.79,-153.38 303.42,-135.89"/>
<polygon fill="black" stroke="black" points="306.93,-136.19 305.48,-125.69 300.07,-134.8 306.93,-136.19"/>
</g>
<!-- d2 -->
<g id="node5" class="node">
<title>d2</title>
<polygon fill="none" stroke="black" points="7.5,-0.5 7.5,-36.5 107.5,-36.5 107.5,-0.5 7.5,-0.5"/>
<text text-anchor="middle" x="57.5" y="-14.8" font-family="Times,serif" font-size="14.00">ML/AI models</text>
</g>
<!-- d1&#45;&gt;d2 -->
<g id="edge6" class="edge">
<title>d1&#45;&gt;d2</title>
<path fill="none" stroke="black" d="M57.5,-88.47C57.5,-76.46 57.5,-60.43 57.5,-46.86"/>
<polygon fill="black" stroke="black" points="61,-46.62 57.5,-36.62 54,-46.62 61,-46.62"/>
<text text-anchor="middle" x="96" y="-58.8" font-family="Times,serif" font-size="14.00">Bigquery ML</text>
</g>
<!-- v1&#45;&gt;b2 -->
<g id="edge4" class="edge">
<title>v1&#45;&gt;b2</title>
<path fill="none" stroke="black" d="M186.5,-125.74C186.5,-144.78 186.5,-175.72 186.5,-198.3"/>
<polygon fill="black" stroke="black" points="183,-198.32 186.5,-208.32 190,-198.32 183,-198.32"/>
<text text-anchor="middle" x="237.5" y="-178.8" font-family="Times,serif" font-size="14.00">Annotated images</text>
<text text-anchor="middle" x="237.5" y="-163.8" font-family="Times,serif" font-size="14.00">saved</text>
<text text-anchor="middle" x="237.5" y="-148.8" font-family="Times,serif" font-size="14.00">as new images</text>
</g>
<!-- d3&#45;&gt;b2 -->
<g id="edge8" class="edge">
<title>d3&#45;&gt;b2</title>
<path fill="none" stroke="black" d="M318.74,-125.69C319.79,-143.9 314.98,-172.4 298.5,-190 283.39,-206.14 260.69,-215.15 239.59,-220.17"/>
<polygon fill="black" stroke="black" points="238.78,-216.77 229.73,-222.27 240.24,-223.61 238.78,-216.77"/>
</g>
</g>
</svg>
